<svg width="48" height="48" viewBox="0 0 48 48" fill="none" xmlns="http://www.w3.org/2000/svg">
<g clip-path="url(#clip0_142_2)">
<rect width="48" height="48" fill="white"/>
<path d="M21.8 37.48C20.4667 37.48 19.3067 37.36 18.32 37.12C17.3333 36.88 16.56 36.64 16 36.4C15.44 36.16 15.16 36.04 15.16 36.04L14.92 35.6C14.92 35.6 14.9467 35.4133 15 35.04C15.0533 34.64 15.1067 34.1333 15.16 33.52C15.24 32.88 15.3067 32.1467 15.36 31.32C15.44 30.4667 15.48 29.5867 15.48 28.68L17.92 28.48C17.92 30.1867 18.0533 31.5067 18.32 32.44C18.5867 33.3467 19.0667 33.9733 19.76 34.32C20.48 34.6667 21.4933 34.84 22.8 34.84C24.2667 34.84 25.4533 34.4933 26.36 33.8C27.2933 33.1067 27.76 32.1733 27.76 31C27.76 30.1733 27.4667 29.4667 26.88 28.88C26.2933 28.2933 25.5467 27.7467 24.64 27.24C23.7333 26.7333 22.7733 26.2267 21.76 25.72C20.6933 25.1867 19.6667 24.6 18.68 23.96C17.6933 23.32 16.88 22.5733 16.24 21.72C15.6267 20.8667 15.32 19.84 15.32 18.64C15.32 17.1467 15.7467 15.8267 16.6 14.68C17.4533 13.5333 18.6133 12.6267 20.08 11.96C21.5733 11.2933 23.2667 10.96 25.16 10.96C26.4133 10.96 27.52 11.04 28.48 11.2C29.44 11.36 30.2 11.5333 30.76 11.72C31.32 11.9067 31.6 12 31.6 12L31.76 12.36C31.76 12.36 31.6933 12.6667 31.56 13.28C31.4533 13.8933 31.3333 14.72 31.2 15.76C31.0667 16.8 30.9467 17.9333 30.84 19.16L28.68 19.36L28.36 19.12C28.36 19.12 28.3733 18.96 28.4 18.64C28.4533 18.2933 28.48 17.8533 28.48 17.32C28.48 16.0133 28.1467 15.1067 27.48 14.6C26.84 14.0667 25.7067 13.8 24.08 13.8C22.7733 13.8 21.6933 14.1333 20.84 14.8C19.9867 15.44 19.56 16.2533 19.56 17.24C19.56 17.9867 19.8133 18.6533 20.32 19.24C20.8267 19.8 21.48 20.32 22.28 20.8C23.1067 21.28 23.9867 21.7467 24.92 22.2C26.0667 22.76 27.2 23.3733 28.32 24.04C29.44 24.7067 30.36 25.48 31.08 26.36C31.8267 27.2133 32.2 28.28 32.2 29.56C32.2 31.1333 31.76 32.52 30.88 33.72C30.0267 34.8933 28.8133 35.8133 27.24 36.48C25.6933 37.1467 23.88 37.48 21.8 37.48Z" fill="#202020"/>
</g>
<defs>
<clipPath id="clip0_142_2">
<rect width="48" height="48" fill="white"/>
</clipPath>
</defs>
</svg>
