<?xml version="1.0" encoding="UTF-8" standalone="no"?>
<!DOCTYPE svg PUBLIC "-//W3C//DTD SVG 1.1//EN" "http://www.w3.org/Graphics/SVG/1.1/DTD/svg11.dtd">
<svg width="100%" height="100%" viewBox="0 0 800 144" version="1.1" xmlns="http://www.w3.org/2000/svg" xmlns:xlink="http://www.w3.org/1999/xlink" xml:space="preserve" xmlns:serif="http://www.serif.com/" style="fill-rule:evenodd;clip-rule:evenodd;stroke-linejoin:round;stroke-miterlimit:2;">
    <g transform="matrix(1,0,0,1,-744.103,-4332.34)">
        <g transform="matrix(1,0,0,0.816501,-3517.15,3782.39)">
            <g transform="matrix(1,0,0,1.22474,0,1.7079)">
                <g transform="matrix(1.51101,-0.19628,0.0698651,0.537839,3788.99,338.639)">
                    <path d="M314.261,770.056C309.898,770.056 305.432,769.112 300.863,767.224C296.295,765.335 291.727,762.697 287.161,759.308L282.603,755.917L286.134,719.922L290.153,721.692C293.897,723.193 297.518,724.339 301.017,725.13C304.516,725.921 307.915,726.316 311.213,726.316C314.554,726.316 317.078,725.427 318.784,723.65C320.491,721.873 321.344,719.053 321.344,715.193C321.344,712.714 321.049,710.582 320.458,708.795C319.868,707.009 318.676,705.18 316.882,703.308C315.089,701.437 312.343,699.288 308.643,696.861C302.097,692.529 296.97,687.901 293.262,682.978C289.554,678.055 286.937,672.066 285.411,665.012C283.884,657.957 283.121,649.146 283.121,638.577C283.257,626.22 284.716,616.021 287.499,607.98C290.282,599.939 294.14,593.905 299.073,589.876C304.005,585.847 309.722,583.833 316.224,583.833C320.343,583.833 324.554,584.62 328.856,586.195C333.159,587.769 337.434,590.109 341.682,593.214L344.383,595.31L341.38,631.751L338.431,631.043C334.659,629.948 331.323,629.202 328.425,628.806C325.527,628.409 323.004,628.211 320.858,628.211C316.676,628.211 313.397,629.003 311.021,630.587C308.645,632.171 307.457,634.624 307.457,637.946C307.457,640.34 307.798,642.274 308.482,643.749C309.166,645.224 310.654,646.821 312.947,648.539C315.241,650.258 318.749,652.608 323.473,655.592C329.362,659.117 331.415,661.779 334.774,666.542C338.133,671.304 340.513,677.052 341.914,683.786C343.315,690.519 344.015,698.649 344.015,708.174C344.015,722.165 342.602,733.775 339.776,743.005C336.949,752.235 333.098,759.105 328.223,763.615C323.348,768.125 320.496,770.056 314.261,770.056Z" style="fill:rgb(92,72,61);fill-rule:nonzero;"/>
                </g>
                <g transform="matrix(1.52371,0,0,0.542358,3834.41,273.376)">
                    <path d="M349.89,768.903L349.89,521.212C349.89,519.205 350.277,517.356 350.901,516.38C351.526,515.405 352.289,515.455 352.896,516.512C354.69,519.613 357.529,522.261 361.948,522.261C366.297,522.261 369.09,519.695 370.869,516.704C371.47,515.665 372.224,515.62 372.84,516.587C373.457,517.555 373.838,519.382 373.838,521.365C373.859,547.207 373.859,600.167 373.859,600.167L376.052,597.434C379.493,593.135 382.962,589.772 386.458,587.345C389.954,584.919 393.427,583.748 396.876,583.833C403.205,583.833 408.392,586.61 412.439,592.163C416.485,597.717 419.504,605.201 421.495,614.618C423.486,624.034 424.481,634.692 424.481,646.592L424.481,768.903L400.418,768.903L400.418,660.979C400.418,652.365 399.496,645.766 397.652,641.182C395.809,636.599 392.619,634.307 388.082,634.307C386.326,634.307 384.636,634.825 383.012,635.861C381.388,636.897 379.734,638.225 378.05,639.844L373.859,643.915L373.859,768.903L349.89,768.903Z" style="fill:rgb(92,72,61);fill-rule:nonzero;"/>
                </g>
                <g transform="matrix(1.52371,0,0,0.542358,3839.37,273.72)">
                    <path d="M461.248,771.862C455.451,771.862 450.425,769.22 446.169,763.935C441.913,758.651 438.383,751.515 435.579,742.529C432.774,733.542 430.668,723.461 429.261,712.286C427.853,701.111 427.15,689.63 427.15,677.845C427.15,660.955 428.471,645.405 431.113,631.193C433.755,616.981 437.608,605.534 442.67,596.854C447.732,588.173 453.925,583.833 461.248,583.833C464.488,583.833 467.863,585.113 471.373,587.674C474.883,590.235 478.211,593.85 481.359,598.519L489.34,609.443L484.588,645.558L479.133,639.639C477.218,637.345 475.371,635.584 473.593,634.354C471.814,633.124 470.089,632.509 468.418,632.509C464.654,632.509 461.491,634.312 458.931,637.919C456.371,641.525 454.47,646.696 453.228,653.432C451.986,660.167 451.365,668.305 451.365,677.845C451.365,687.639 452.013,695.904 453.309,702.639C454.605,709.374 456.524,714.503 459.066,718.025C461.607,721.546 464.689,723.307 468.312,723.307C469.909,723.307 471.633,722.65 473.484,721.335C475.335,720.021 477.272,718.006 479.296,715.292L483.724,709.379L489.285,744.349L482.816,754.388C479.346,759.665 475.793,763.897 472.156,767.083C468.519,770.269 464.883,771.862 461.248,771.862ZM489.34,768.903L486.37,735.095L483.14,725.763L483.14,630.053L486.176,620.722L489.243,586.914L507.109,586.914L507.109,768.903L489.34,768.903Z" style="fill:rgb(92,72,61);fill-rule:nonzero;"/>
                </g>
                <g transform="matrix(1.52371,0,0,0.542358,3837.37,273.72)">
                    <path d="M514.235,768.903L514.235,586.914L532.101,586.914L533.84,605.958L538.939,599.205C542.596,594.484 546.299,590.742 550.047,587.979C553.795,585.215 557.52,583.833 561.221,583.833C567.55,583.833 572.737,586.61 576.784,592.163C580.83,597.717 583.849,605.201 585.84,614.618C587.831,624.034 588.826,634.692 588.826,646.592L588.826,768.903L564.86,768.903L564.86,660.979C564.86,652.365 563.922,645.766 562.046,641.182C560.17,636.599 556.964,634.307 552.427,634.307C550.671,634.307 548.981,634.787 547.357,635.748C545.733,636.708 544.079,638.074 542.395,639.844L538.204,643.915L538.204,768.903L514.235,768.903Z" style="fill:rgb(92,72,61);fill-rule:nonzero;"/>
                </g>
                <g transform="matrix(1.52371,0,0,0.542358,3835.12,273.581)">
                    <path d="M595.003,768.903C595.003,768.903 595.035,575.336 595.044,521.014C595.045,519.017 595.428,517.175 596.048,516.196C596.668,515.218 597.427,515.254 598.035,516.29C599.785,519.264 602.555,521.742 606.887,521.742C611.353,521.742 614.21,519.108 616.021,516.066C616.622,515.025 617.376,514.98 617.993,515.948C618.609,516.916 618.991,518.745 618.991,520.729C619.001,557.513 618.972,655.464 618.972,655.464L626.143,655.464L647.149,586.914L673.063,586.914L634.526,702.88L618.972,702.88L618.972,768.903L595.003,768.903ZM646.847,768.903L627.428,699.34L642.183,655.265L674.433,768.903L646.847,768.903Z" style="fill:rgb(92,72,61);fill-rule:nonzero;"/>
                </g>
                <g transform="matrix(1.52371,0,0,0.542358,3837.37,273.72)">
                    <path d="M699.737,771.862C693.941,771.862 688.914,769.22 684.659,763.935C680.403,758.651 676.872,751.515 674.068,742.529C671.263,733.542 669.158,723.461 667.75,712.286C666.343,701.111 665.639,689.63 665.639,677.845C665.639,660.955 666.96,645.405 669.603,631.193C672.245,616.981 676.097,605.534 681.159,596.854C686.222,588.173 692.414,583.833 699.737,583.833C702.977,583.833 706.352,585.113 709.862,587.674C713.372,590.235 716.701,593.85 719.848,598.519L727.829,609.443L723.078,645.558L717.622,639.639C715.707,637.345 713.86,635.584 712.082,634.354C710.304,633.124 708.579,632.509 706.908,632.509C703.143,632.509 699.981,634.312 697.42,637.919C694.86,641.525 692.959,646.696 691.717,653.432C690.475,660.167 689.854,668.305 689.854,677.845C689.854,687.639 690.502,695.904 691.799,702.639C693.095,709.374 695.014,714.503 697.555,718.025C700.097,721.546 703.179,723.307 706.801,723.307C708.399,723.307 710.122,722.65 711.973,721.335C713.824,720.021 715.761,718.006 717.785,715.292L722.213,709.379L727.775,744.349L721.306,754.388C717.836,759.665 714.282,763.897 710.645,767.083C707.008,770.269 703.372,771.862 699.737,771.862ZM727.829,768.903L724.859,735.095L721.629,725.763L721.629,630.053L724.665,620.722L727.732,586.914L745.599,586.914L745.599,768.903L727.829,768.903Z" style="fill:rgb(92,72,61);fill-rule:nonzero;"/>
                </g>
                <g transform="matrix(1.52371,0,0,0.542358,3835.37,273.72)">
                    <path d="M752.724,768.903L752.724,586.914L770.201,586.914L772.545,610.002L778.454,599.304C781.305,594.333 784.304,590.512 787.451,587.84C790.598,585.169 793.593,583.833 796.436,583.833C797.653,583.748 798.905,584.202 800.19,585.196C801.475,586.19 802.744,587.758 803.996,589.901L803.996,636.176C801.016,636.412 798.153,637.015 795.406,637.985C792.659,638.955 789.597,640.755 786.22,643.384L776.693,650.132L776.693,768.903L752.724,768.903Z" style="fill:rgb(92,72,61);fill-rule:nonzero;"/>
                </g>
            </g>
        </g>
    </g>
</svg>
