<svg width="229" height="36" viewBox="0 0 229 36" fill="none" xmlns="http://www.w3.org/2000/svg">
<g clip-path="url(#clip0_167_5)">
<path d="M14.0982 35.6426C12.4501 35.8567 10.7466 35.9489 8.98764 35.9193C7.22907 35.8894 5.45743 35.7589 3.67341 35.5272L1.89239 35.295L2.59753 30.2818L4.14664 30.3226C5.58716 30.3407 6.97501 30.3171 8.31059 30.2518C9.64616 30.1864 10.937 30.0727 12.1829 29.9109C13.4449 29.747 14.3829 29.5036 14.9963 29.1809C15.6101 28.8582 15.883 28.4372 15.8156 27.9182C15.7723 27.5849 15.6236 27.3127 15.3692 27.1014C15.1151 26.8902 14.6329 26.7028 13.9225 26.5391C13.2125 26.3755 12.1377 26.2213 10.6976 26.0765C8.14914 25.8153 6.13157 25.4446 4.64488 24.9646C3.15818 24.4846 2.06501 23.8077 1.36535 22.9341C0.665296 22.0604 0.223172 20.9131 0.0385707 19.492C-0.125886 17.8238 0.247112 16.3809 1.15795 15.1631C2.06879 13.9454 3.42077 12.9447 5.21385 12.1609C7.00656 11.3772 9.13099 10.8259 11.5871 10.5068C13.1431 10.3047 14.7476 10.2039 16.4002 10.2045C18.0531 10.205 19.7089 10.3099 21.3678 10.5189L22.4247 10.6682L21.9268 15.7154L20.8005 15.765C19.3565 15.8028 18.0832 15.8662 16.9816 15.9552C15.8799 16.044 14.9234 16.1412 14.1128 16.2465C12.533 16.4517 11.3082 16.7191 10.4383 17.0486C9.56843 17.3782 9.16251 17.7663 9.22053 18.213C9.26235 18.5349 9.42494 18.7782 9.70908 18.943C9.99323 19.1078 10.5832 19.2495 11.4794 19.368C12.376 19.4865 13.7422 19.6304 15.5788 19.7998C17.865 19.9848 18.687 20.242 20.0391 20.7176C21.3911 21.1931 22.3906 21.8491 23.0374 22.6859C23.6842 23.5224 24.0907 24.5812 24.257 25.862C24.5014 27.7432 24.1704 29.3736 23.2641 30.7533C22.3574 32.1331 21.0227 33.2458 19.2599 34.0915C17.4971 34.9371 16.4535 35.3367 14.0982 35.6426Z" fill="#5C483D"/>
<path d="M26.5732 35.4613V1.877C26.5732 1.60487 26.7207 1.35417 26.9584 1.22183C27.1964 1.08963 27.4871 1.09642 27.7183 1.23973C28.4017 1.6602 29.4831 2.01923 31.1665 2.01923C32.8231 2.01923 33.887 1.67131 34.5647 1.26576C34.7936 1.12488 35.0809 1.11878 35.3155 1.2499C35.5506 1.38115 35.6957 1.62887 35.6957 1.89775C35.7037 5.40165 35.7037 12.5825 35.7037 12.5825L36.5391 12.2119C37.8498 11.629 39.1713 11.173 40.503 10.8439C41.8347 10.515 43.1577 10.3562 44.4715 10.3678C46.8824 10.3678 48.8583 10.7443 50.3999 11.4972C51.9411 12.2503 53.0911 13.265 53.8495 14.5419C54.608 15.8186 54.987 17.2637 54.987 18.8772V35.4613H45.8207V20.8279C45.8207 19.66 45.4695 18.7652 44.7671 18.1437C44.065 17.5223 42.8499 17.2115 41.1216 17.2115C40.4527 17.2115 39.8089 17.2817 39.1903 17.4222C38.5717 17.5627 37.9416 17.7427 37.3002 17.9623L35.7037 18.5142V35.4613H26.5732Z" fill="#5C483D"/>
<path d="M70.2325 35.9485C68.0243 35.9485 66.1097 35.5903 64.4885 34.8737C62.8673 34.1572 61.5226 33.1897 60.4545 31.9712C59.386 30.7527 58.5838 29.3858 58.0478 27.8706C57.5114 26.3554 57.2437 24.7987 57.2437 23.2008C57.2437 20.9107 57.7469 18.8022 58.7533 16.8753C59.7597 14.9483 61.2274 13.3962 63.1557 12.2192C65.0839 11.0422 67.443 10.4537 70.2325 10.4537C71.4667 10.4537 72.7524 10.6273 74.0894 10.9745C75.4265 11.3218 76.6942 11.8119 77.8934 12.445L80.9335 13.9262L79.1234 18.823L77.0454 18.0204C76.3159 17.7094 75.6124 17.4706 74.9351 17.3039C74.2574 17.1371 73.6003 17.0537 72.9638 17.0537C71.53 17.0537 70.3251 17.2982 69.3499 17.7872C68.3747 18.2762 67.6506 18.9773 67.1775 19.8906C66.7044 20.8038 66.4678 21.9072 66.4678 23.2008C66.4678 24.5287 66.7147 25.6494 67.2083 26.5626C67.702 27.4758 68.433 28.1712 69.4013 28.6488C70.3693 29.1262 71.5433 29.3649 72.9234 29.3649C73.5317 29.3649 74.1885 29.2759 74.8936 29.0976C75.5986 28.9194 76.3365 28.6462 77.1075 28.2782L78.7942 27.4765L80.9126 32.218L78.4484 33.5792C77.1266 34.2947 75.7731 34.8685 74.3877 35.3005C73.0022 35.7325 71.6172 35.9485 70.2325 35.9485ZM80.9335 35.5473L79.8022 30.9633L78.5718 29.698V16.7207L79.7283 15.4555L80.8966 10.8715H87.7022V35.5473H80.9335Z" fill="#5C483D"/>
<path d="M89.9165 35.5473V10.8715H96.7222L97.3846 13.4537L99.327 12.538C100.72 11.8979 102.131 11.3905 103.558 11.0159C104.986 10.6411 106.405 10.4537 107.815 10.4537C110.226 10.4537 112.202 10.8303 113.743 11.5832C115.284 12.3363 116.434 13.351 117.193 14.6279C117.951 15.9046 118.33 17.3497 118.33 18.9632V35.5473H109.201V20.9139C109.201 19.746 108.844 18.8512 108.129 18.2297C107.414 17.6083 106.193 17.2975 104.465 17.2975C103.796 17.2975 103.152 17.3626 102.534 17.4929C101.915 17.623 101.285 17.8082 100.643 18.0482L99.047 18.6002V35.5473H89.9165Z" fill="#5C483D"/>
<path d="M120.121 35.5125C120.121 35.5125 120.133 9.26688 120.137 1.90139C120.137 1.63062 120.283 1.38086 120.519 1.24812C120.755 1.11552 121.044 1.1204 121.276 1.26087C121.943 1.66411 122.998 2.0001 124.648 2.0001C126.349 2.0001 127.438 1.64296 128.127 1.23049C128.356 1.08935 128.644 1.08325 128.879 1.2145C129.113 1.34575 129.259 1.59374 129.259 1.86275C129.263 6.85028 129.252 20.1314 129.252 20.1314H131.983L139.985 10.8367H149.856L135.176 26.5605H129.252V35.5125H120.121ZM139.87 35.5125L132.473 26.0805L138.093 20.1044L150.378 35.5125H139.87Z" fill="#5C483D"/>
<path d="M160.989 35.9485C158.781 35.9485 156.866 35.5903 155.245 34.8737C153.624 34.1572 152.279 33.1897 151.211 31.9712C150.142 30.7527 149.34 29.3858 148.804 27.8706C148.268 26.3554 148 24.7987 148 23.2008C148 20.9107 148.503 18.8022 149.51 16.8753C150.516 14.9483 151.984 13.3962 153.912 12.2192C155.841 11.0422 158.199 10.4537 160.989 10.4537C162.223 10.4537 163.509 10.6273 164.846 10.9745C166.183 11.3218 167.451 11.8119 168.65 12.445L171.69 13.9262L169.88 18.823L167.802 18.0204C167.072 17.7094 166.369 17.4706 165.691 17.3039C165.014 17.1371 164.357 17.0537 163.721 17.0537C162.286 17.0537 161.082 17.2982 160.106 17.7872C159.131 18.2762 158.407 18.9773 157.934 19.8906C157.461 20.8038 157.224 21.9072 157.224 23.2008C157.224 24.5287 157.471 25.6494 157.965 26.5626C158.459 27.4758 159.19 28.1712 160.158 28.6488C161.126 29.1262 162.3 29.3649 163.68 29.3649C164.288 29.3649 164.945 29.2759 165.65 29.0976C166.355 28.9194 167.093 28.6462 167.864 28.2782L169.551 27.4765L171.669 32.218L169.205 33.5792C167.883 34.2947 166.529 34.8685 165.144 35.3005C163.759 35.7325 162.374 35.9485 160.989 35.9485ZM171.69 35.5473L170.559 30.9633L169.328 29.698V16.7207L170.485 15.4555L171.653 10.8715H178.459V35.5473H171.69Z" fill="#5C483D"/>
<path d="M182 35.5473V10.8715H188.657L189.55 14.002L191.801 12.5515C192.887 11.8774 194.03 11.3594 195.228 10.9971C196.427 10.6349 197.568 10.4538 198.651 10.4538C199.115 10.4422 199.592 10.5038 200.081 10.6386C200.571 10.7733 201.054 10.9859 201.531 11.2765V17.5509C200.396 17.5829 199.305 17.6647 198.259 17.7962C197.212 17.9277 196.046 18.1718 194.76 18.5282L191.13 19.4432V35.5473H182Z" fill="#5C483D"/>
<path d="M216.759 21.8117C214.289 21.8117 212.178 21.6207 210.426 21.2386C208.674 20.8565 207.332 20.3282 206.399 19.6536C205.466 18.979 205 18.1939 205 17.2984V10.53H213.205V16.8149C213.205 17.3283 213.495 17.6894 214.074 17.8984C214.654 18.1073 215.637 18.2118 217.023 18.2118C218.359 18.2118 219.298 18.1073 219.84 17.8984C220.382 17.6894 220.653 17.3283 220.653 16.8149V10.53L228.631 10.53V17.2984C228.631 18.1939 228.133 18.979 227.137 19.6536C226.142 20.3282 224.756 20.8565 222.978 21.2386C221.201 21.6207 219.128 21.8117 216.759 21.8117Z" fill="#8A6D5C"/>
<path d="M220.637 35.4413L215.424 32.0205L214.13 31.734L204.148 24.785H213.613L218.419 28.4924L219.898 28.8864L229.399 35.4413H220.637ZM204 35.4413L212.762 29.352L216.755 32.522L212.577 35.4413H204ZM220.6 30.3549L216.334 27.417L220.526 24.785H229.251L220.6 30.3549Z" fill="#8A6D5C"/>
</g>
<defs>
<clipPath id="clip0_167_5">
<rect width="228.5" height="36" fill="white"/>
</clipPath>
</defs>
</svg>
