<svg width="48" height="48" viewBox="0 0 48 48" fill="none" xmlns="http://www.w3.org/2000/svg">
<rect width="48" height="48" rx="12" fill="#EB7818"/>
<circle cx="12" cy="37" r="4" fill="white"/>
<path d="M25.1429 41C25.1429 38.6362 24.6994 36.2956 23.8379 34.1117C22.9764 31.9278 21.7137 29.9435 20.1218 28.2721C18.53 26.6006 16.6402 25.2748 14.5603 24.3702C12.4804 23.4656 10.2512 23 8 23" stroke="white" stroke-width="5.14286"/>
<path d="M35.0968 41C35.0968 37.323 34.3959 33.682 33.0342 30.2849C31.6724 26.8877 29.6765 23.801 27.1603 21.201C24.6441 18.601 21.657 16.5385 18.3695 15.1314C15.082 13.7242 11.5584 13 8 13" stroke="white" stroke-width="5.41935"/>
</svg>
